<?xml version="1.0" encoding="UTF-8" standalone="no"?>
<!DOCTYPE svg PUBLIC "-//W3C//DTD SVG 1.1//EN"
 "http://www.w3.org/Graphics/SVG/1.1/DTD/svg11.dtd">
<!-- Generated by graphviz version 2.47.0 (20210316.0004)
 -->
<!-- Title: dependencies Pages: 1 -->
<svg width="1085pt" height="287pt"
 viewBox="0.00 0.00 1085.00 287.00" xmlns="http://www.w3.org/2000/svg" xmlns:xlink="http://www.w3.org/1999/xlink">
<g id="graph0" class="graph" transform="scale(1 1) rotate(0) translate(4 283)">
<title>dependencies</title>
<polygon fill="white" stroke="transparent" points="-4,4 -4,-283 1081,-283 1081,4 -4,4"/>
<text text-anchor="start" x="517.51" y="-42.4" font-family="Times-12" font-weight="bold" font-size="14.00">Legend</text>
<polygon fill="#ffffb3" stroke="transparent" points="304.5,-10 304.5,-30 324.5,-30 324.5,-10 304.5,-10"/>
<text text-anchor="start" x="328.13" y="-15.4" font-family="Times-12" font-size="14.00"> &#160;Declarations</text>
<polygon fill="#8dd3c7" stroke="transparent" points="417.5,-10 417.5,-30 437.5,-30 437.5,-10 417.5,-10"/>
<text text-anchor="start" x="441.23" y="-15.4" font-family="Times-12" font-size="14.00"> &#160;Module</text>
<polygon fill="#80b1d3" stroke="transparent" points="503.5,-10 503.5,-30 523.5,-30 523.5,-10 503.5,-10"/>
<text text-anchor="start" x="527.28" y="-15.4" font-family="Times-12" font-size="14.00"> &#160;Bootstrap</text>
<polygon fill="#fdb462" stroke="transparent" points="600.5,-10 600.5,-30 620.5,-30 620.5,-10 600.5,-10"/>
<text text-anchor="start" x="624.17" y="-15.4" font-family="Times-12" font-size="14.00"> &#160;Providers</text>
<polygon fill="#fb8072" stroke="transparent" points="696.5,-10 696.5,-30 716.5,-30 716.5,-10 696.5,-10"/>
<text text-anchor="start" x="720.23" y="-15.4" font-family="Times-12" font-size="14.00"> &#160;Exports</text>
<g id="clust1" class="cluster">
<title>cluster_AppModule</title>
<polygon fill="none" stroke="black" stroke-dasharray="1,5" points="162,-70 162,-271 529,-271 529,-70 162,-70"/>
</g>
<g id="clust3" class="cluster">
<title>cluster_AppModule_imports</title>
<polygon fill="none" stroke="black" points="308,-78 308,-206 521,-206 521,-78 308,-78"/>
</g>
<g id="clust6" class="cluster">
<title>cluster_AppModule_providers</title>
<polygon fill="none" stroke="black" points="170,-154 170,-206 300,-206 300,-154 170,-154"/>
</g>
<g id="clust7" class="cluster">
<title>cluster_AuthModule</title>
<polygon fill="none" stroke="black" stroke-dasharray="1,5" points="537,-146 537,-214 801,-214 801,-146 537,-146"/>
</g>
<g id="clust10" class="cluster">
<title>cluster_AuthModule_exports</title>
<polygon fill="none" stroke="black" points="687,-154 687,-206 793,-206 793,-154 687,-154"/>
</g>
<g id="clust12" class="cluster">
<title>cluster_AuthModule_providers</title>
<polygon fill="none" stroke="black" points="545,-154 545,-206 679,-206 679,-154 545,-154"/>
</g>
<g id="clust13" class="cluster">
<title>cluster_PostModule</title>
<polygon fill="none" stroke="black" stroke-dasharray="1,5" points="8,-70 8,-138 154,-138 154,-70 8,-70"/>
</g>
<g id="clust18" class="cluster">
<title>cluster_PostModule_providers</title>
<polygon fill="none" stroke="black" points="16,-78 16,-130 146,-130 146,-78 16,-78"/>
</g>
<g id="clust19" class="cluster">
<title>cluster_UsersModule</title>
<polygon fill="none" stroke="black" stroke-dasharray="1,5" points="809,-146 809,-214 1069,-214 1069,-146 809,-146"/>
</g>
<g id="clust22" class="cluster">
<title>cluster_UsersModule_exports</title>
<polygon fill="none" stroke="black" points="957,-154 957,-206 1061,-206 1061,-154 957,-154"/>
</g>
<g id="clust24" class="cluster">
<title>cluster_UsersModule_providers</title>
<polygon fill="none" stroke="black" points="817,-154 817,-206 949,-206 949,-154 817,-154"/>
</g>
<!-- AuthModule -->
<g id="node1" class="node">
<title>AuthModule</title>
<polygon fill="#8dd3c7" stroke="black" points="403.55,-122 400.55,-126 379.55,-126 376.55,-122 316.45,-122 316.45,-86 403.55,-86 403.55,-122"/>
<text text-anchor="middle" x="360" y="-99.8" font-family="Times,serif" font-size="14.00">AuthModule</text>
</g>
<!-- AppModule -->
<g id="node4" class="node">
<title>AppModule</title>
<polygon fill="#8dd3c7" stroke="black" points="429.66,-263 426.66,-267 405.66,-267 402.66,-263 346.34,-263 346.34,-227 429.66,-227 429.66,-263"/>
<text text-anchor="middle" x="388" y="-240.8" font-family="Times,serif" font-size="14.00">AppModule</text>
</g>
<!-- AuthModule&#45;&gt;AppModule -->
<g id="edge1" class="edge">
<title>AuthModule&#45;&gt;AppModule</title>
<path fill="none" stroke="black" d="M403.92,-110C407.4,-110 409.61,-110 409.61,-110 409.61,-110 409.61,-216.79 409.61,-216.79"/>
<polygon fill="black" stroke="black" points="406.11,-216.79 409.61,-226.79 413.11,-216.79 406.11,-216.79"/>
</g>
<!-- AuthService  -->
<g id="node6" class="node">
<title>AuthService </title>
<polygon fill="#fb8072" stroke="black" points="784.98,-198 695.02,-198 695.02,-162 784.98,-162 784.98,-198"/>
<text text-anchor="middle" x="740" y="-175.8" font-family="Times,serif" font-size="14.00">AuthService </text>
</g>
<!-- AuthModule&#45;&gt;AuthService  -->
<g id="edge5" class="edge">
<title>AuthModule&#45;&gt;AuthService </title>
<path fill="none" stroke="black" stroke-dasharray="5,2" d="M358.03,-122.11C358.03,-131.9 358.03,-142 358.03,-142 358.03,-142 740,-142 740,-142 740,-142 740,-151.89 740,-151.89"/>
<polygon fill="black" stroke="black" points="736.5,-151.89 740,-161.89 743.5,-151.89 736.5,-151.89"/>
</g>
<!-- PostModule -->
<g id="node2" class="node">
<title>PostModule</title>
<polygon fill="#8dd3c7" stroke="black" points="399.67,-198 396.67,-202 375.67,-202 372.67,-198 316.33,-198 316.33,-162 399.67,-162 399.67,-198"/>
<text text-anchor="middle" x="358" y="-175.8" font-family="Times,serif" font-size="14.00">PostModule</text>
</g>
<!-- PostModule&#45;&gt;AppModule -->
<g id="edge2" class="edge">
<title>PostModule&#45;&gt;AppModule</title>
<path fill="none" stroke="black" d="M373,-198.11C373,-198.11 373,-216.99 373,-216.99"/>
<polygon fill="black" stroke="black" points="369.5,-216.99 373,-226.99 376.5,-216.99 369.5,-216.99"/>
</g>
<!-- UsersModule -->
<g id="node3" class="node">
<title>UsersModule</title>
<polygon fill="#8dd3c7" stroke="black" points="512.92,-122 509.92,-126 488.92,-126 485.92,-122 421.08,-122 421.08,-86 512.92,-86 512.92,-122"/>
<text text-anchor="middle" x="467" y="-99.8" font-family="Times,serif" font-size="14.00">UsersModule</text>
</g>
<!-- UsersModule&#45;&gt;PostModule -->
<g id="edge7" class="edge">
<title>UsersModule&#45;&gt;PostModule</title>
<path fill="none" stroke="black" d="M424.14,-122.2C424.14,-146.36 424.14,-186 424.14,-186 424.14,-186 409.88,-186 409.88,-186"/>
<polygon fill="black" stroke="black" points="409.88,-182.5 399.88,-186 409.88,-189.5 409.88,-182.5"/>
</g>
<!-- UsersModule&#45;&gt;AppModule -->
<g id="edge3" class="edge">
<title>UsersModule&#45;&gt;AppModule</title>
<path fill="none" stroke="black" d="M426.98,-122.14C426.98,-122.14 426.98,-216.93 426.98,-216.93"/>
<polygon fill="black" stroke="black" points="423.48,-216.92 426.98,-226.93 430.48,-216.93 423.48,-216.92"/>
</g>
<!-- UserService  -->
<g id="node9" class="node">
<title>UserService </title>
<polygon fill="#fb8072" stroke="black" points="1052.9,-198 965.1,-198 965.1,-162 1052.9,-162 1052.9,-198"/>
<text text-anchor="middle" x="1009" y="-175.8" font-family="Times,serif" font-size="14.00">UserService </text>
</g>
<!-- UsersModule&#45;&gt;UserService  -->
<g id="edge9" class="edge">
<title>UsersModule&#45;&gt;UserService </title>
<path fill="none" stroke="black" stroke-dasharray="5,2" d="M512.74,-98C643.41,-98 1009,-98 1009,-98 1009,-98 1009,-151.8 1009,-151.8"/>
<polygon fill="black" stroke="black" points="1005.5,-151.8 1009,-161.8 1012.5,-151.8 1005.5,-151.8"/>
</g>
<!-- AppService -->
<g id="node5" class="node">
<title>AppService</title>
<ellipse fill="#fdb462" stroke="black" cx="235" cy="-180" rx="56.74" ry="18"/>
<text text-anchor="middle" x="235" y="-175.8" font-family="Times,serif" font-size="14.00">AppService</text>
</g>
<!-- AppService&#45;&gt;AppModule -->
<g id="edge4" class="edge">
<title>AppService&#45;&gt;AppModule</title>
<path fill="none" stroke="black" d="M235,-198.11C235,-217.34 235,-245 235,-245 235,-245 336.19,-245 336.19,-245"/>
<polygon fill="black" stroke="black" points="336.19,-248.5 346.19,-245 336.19,-241.5 336.19,-248.5"/>
</g>
<!-- AuthService -->
<g id="node7" class="node">
<title>AuthService</title>
<ellipse fill="#fdb462" stroke="black" cx="612" cy="-180" rx="59.11" ry="18"/>
<text text-anchor="middle" x="612" y="-175.8" font-family="Times,serif" font-size="14.00">AuthService</text>
</g>
<!-- AuthService&#45;&gt;AuthModule -->
<g id="edge6" class="edge">
<title>AuthService&#45;&gt;AuthModule</title>
<path fill="none" stroke="black" d="M555.94,-174C497.85,-174 415.45,-174 415.45,-174 415.45,-174 415.45,-98 415.45,-98 415.45,-98 413.69,-98 413.69,-98"/>
<polygon fill="black" stroke="black" points="413.69,-94.5 403.69,-98 413.69,-101.5 413.69,-94.5"/>
</g>
<!-- PostService -->
<g id="node8" class="node">
<title>PostService</title>
<ellipse fill="#fdb462" stroke="black" cx="81" cy="-104" rx="56.76" ry="18"/>
<text text-anchor="middle" x="81" y="-99.8" font-family="Times,serif" font-size="14.00">PostService</text>
</g>
<!-- PostService&#45;&gt;PostModule -->
<g id="edge8" class="edge">
<title>PostService&#45;&gt;PostModule</title>
<path fill="none" stroke="black" d="M137.82,-104C203.86,-104 303.89,-104 303.89,-104 303.89,-104 303.89,-180 303.89,-180 303.89,-180 306.17,-180 306.17,-180"/>
<polygon fill="black" stroke="black" points="306.17,-183.5 316.17,-180 306.17,-176.5 306.17,-183.5"/>
</g>
<!-- UserService -->
<g id="node10" class="node">
<title>UserService</title>
<ellipse fill="#fdb462" stroke="black" cx="883" cy="-180" rx="58.44" ry="18"/>
<text text-anchor="middle" x="883" y="-175.8" font-family="Times,serif" font-size="14.00">UserService</text>
</g>
<!-- UserService&#45;&gt;UsersModule -->
<g id="edge10" class="edge">
<title>UserService&#45;&gt;UsersModule</title>
<path fill="none" stroke="black" d="M883,-161.97C883,-141.23 883,-110 883,-110 883,-110 523.11,-110 523.11,-110"/>
<polygon fill="black" stroke="black" points="523.11,-106.5 513.11,-110 523.11,-113.5 523.11,-106.5"/>
</g>
</g>
</svg>
